#Comment line ignore any data following # character 
#Hierarchical Translation and Rotation (.htr) file 
[Header]	
#Header keywords are followed by a single value 
FileType HTR		#Single word string
DataType HTRS		#Translation followed by rotation and scale data
FileVersion 1		#integer
NumSegments 84		#integer
NumFrames 2		#integer
DataFrameRate 30		#integer, data frame rate in this file
EulerRotationOrder ZYX
CalibrationUnits mm
RotationUnits Degrees
GlobalAxisofGravity Y
BoneLengthAxis Y
ScaleFactor 1.00
[SegmentNames&Hierarchy]
#CHILD	PARENT
MASTER GLOBAL
root MASTER
chest root
L_mid_tent01 root
R_mid_tent01 root
spine01 root
Bip01_Neck chest
L_humerus chest
R_humerus chest
weapon_bone chest
Bip01_Head Bip01_Neck
eye_left_bone Bip01_Head
eye_right_bone Bip01_Head
L_forearm L_humerus
L_front_hand L_forearm
L_weapon_bone L_forearm
L_front_hand01_01 L_front_hand
L_front_hand02_01 L_front_hand
L_front_hand03_01 L_front_hand
L_front_hand01_02 L_front_hand01_01
L_front_hand02_02 L_front_hand02_01
L_front_hand03_02 L_front_hand03_01
R_forearm R_humerus
R_front_hand R_forearm
R_weapon_bone R_forearm
R_front_hand01_01 R_front_hand
R_front_hand02_01 R_front_hand
R_front_hand03_01 R_front_hand
R_front_hand01_02 R_front_hand01_01
R_front_hand02_02 R_front_hand02_01
R_front_hand03_02 R_front_hand03_01
null_rope01_connect L_mid_tent01
Rope1_Seg01 null_rope01_connect
Rope1_Seg02 Rope1_Seg01
Rope1_Seg03 Rope1_Seg02
Rope1_Seg04 Rope1_Seg03
Rope1_Seg05 Rope1_Seg04
Rope1_Seg06 Rope1_Seg05
Rope1_Seg07 Rope1_Seg06
Rope1_Seg09 Rope1_Seg07
L_mid_hand01 Rope1_Seg09
L_mid_hand02 Rope1_Seg09
L_mid_hand03 Rope1_Seg09
null_rope02_connect R_mid_tent01
Rope2_Seg01 null_rope02_connect
Rope2_Seg02 Rope2_Seg01
Rope2_Seg03 Rope2_Seg02
Rope2_Seg04 Rope2_Seg03
Rope2_Seg05 Rope2_Seg04
Rope2_Seg06 Rope2_Seg05
Rope2_Seg07 Rope2_Seg06
Rope2_Seg09 Rope2_Seg07
R_mid_hand01 Rope2_Seg09
R_mid_hand02 Rope2_Seg09
R_mid_hand03 Rope2_Seg09
spine02 spine01
spine03 spine02
pelvis spine03
null_rope03_connect pelvis
null_rope04_connect pelvis
Rope3_Seg01 null_rope03_connect
Rope3_Seg02 Rope3_Seg01
Rope3_Seg03 Rope3_Seg02
Rope3_Seg04 Rope3_Seg03
Rope3_Seg05 Rope3_Seg04
Rope3_Seg06 Rope3_Seg05
Rope3_Seg07 Rope3_Seg06
Rope3_Seg08 Rope3_Seg07
Rope3_Seg09 Rope3_Seg08
R_rear_hand01 Rope3_Seg09
R_rear_hand02 Rope3_Seg09
R_rear_hand03 Rope3_Seg09
Rope4_Seg01 null_rope04_connect
Rope4_Seg02 Rope4_Seg01
Rope4_Seg03 Rope4_Seg02
Rope4_Seg04 Rope4_Seg03
Rope4_Seg05 Rope4_Seg04
Rope4_Seg06 Rope4_Seg05
Rope4_Seg07 Rope4_Seg06
Rope4_Seg08 Rope4_Seg07
Rope4_Seg09 Rope4_Seg08
L_rear_hand01 Rope4_Seg09
L_rear_hand02 Rope4_Seg09
L_rear_hand03 Rope4_Seg09
[BasePosition]
#SegmentName Tx, Ty, Tz, Rx, Ry, Rz, BoneLength
MASTER 0.000000 0.000000 0.000000 -90.000000 0.000000 0.000000 10.000000 
root 0.000000 0.000000 0.000000 0.000000 0.000000 0.000000 10.000000 
chest 0.000000 0.000000 0.000000 0.000000 0.000000 0.000000 10.000000 
L_mid_tent01 0.000000 0.000000 0.000000 0.000000 0.000000 0.000000 10.000000 
R_mid_tent01 0.000000 0.000000 0.000000 0.000000 0.000000 0.000000 10.000000 
spine01 0.000000 0.000000 0.000000 0.000000 0.000000 0.000000 10.000000 
Bip01_Neck 0.000000 0.000000 0.000000 0.000000 0.000000 0.000000 10.000000 
L_humerus 0.000000 0.000000 0.000000 0.000000 0.000000 0.000000 10.000000 
R_humerus 0.000000 0.000000 0.000000 0.000000 0.000000 0.000000 10.000000 
weapon_bone 0.000000 0.000000 0.000000 0.000000 0.000000 0.000000 10.000000 
Bip01_Head 0.000000 0.000000 0.000000 0.000000 0.000000 0.000000 10.000000 
eye_left_bone 0.000000 0.000000 0.000000 0.000000 0.000000 0.000000 10.000000 
eye_right_bone 0.000000 0.000000 0.000000 0.000000 0.000000 0.000000 10.000000 
L_forearm 0.000000 0.000000 0.000000 0.000000 0.000000 0.000000 10.000000 
L_front_hand 0.000000 0.000000 0.000000 0.000000 0.000000 0.000000 10.000000 
L_weapon_bone 0.000000 0.000000 0.000000 0.000000 0.000000 0.000000 10.000000 
L_front_hand01_01 0.000000 0.000000 0.000000 0.000000 0.000000 0.000000 10.000000 
L_front_hand02_01 0.000000 0.000000 0.000000 0.000000 0.000000 0.000000 10.000000 
L_front_hand03_01 0.000000 0.000000 0.000000 0.000000 0.000000 0.000000 10.000000 
L_front_hand01_02 0.000000 0.000000 0.000000 0.000000 0.000000 0.000000 10.000000 
L_front_hand02_02 0.000000 0.000000 0.000000 0.000000 0.000000 0.000000 10.000000 
L_front_hand03_02 0.000000 0.000000 0.000000 0.000000 0.000000 0.000000 10.000000 
R_forearm 0.000000 0.000000 0.000000 0.000000 0.000000 0.000000 10.000000 
R_front_hand 0.000000 0.000000 0.000000 0.000000 0.000000 0.000000 10.000000 
R_weapon_bone 0.000000 0.000000 0.000000 0.000000 0.000000 0.000000 10.000000 
R_front_hand01_01 0.000000 0.000000 0.000000 0.000000 0.000000 0.000000 10.000000 
R_front_hand02_01 0.000000 0.000000 0.000000 0.000000 0.000000 0.000000 10.000000 
R_front_hand03_01 0.000000 0.000000 0.000000 0.000000 0.000000 0.000000 10.000000 
R_front_hand01_02 0.000000 0.000000 0.000000 0.000000 0.000000 0.000000 10.000000 
R_front_hand02_02 0.000000 0.000000 0.000000 0.000000 0.000000 0.000000 10.000000 
R_front_hand03_02 0.000000 0.000000 0.000000 0.000000 0.000000 0.000000 10.000000 
null_rope01_connect 0.000000 0.000000 0.000000 0.000000 0.000000 0.000000 10.000000 
Rope1_Seg01 0.000000 0.000000 0.000000 0.000000 0.000000 0.000000 10.000000 
Rope1_Seg02 0.000000 0.000000 0.000000 0.000000 0.000000 0.000000 10.000000 
Rope1_Seg03 0.000000 0.000000 0.000000 0.000000 0.000000 0.000000 10.000000 
Rope1_Seg04 0.000000 0.000000 0.000000 0.000000 0.000000 0.000000 10.000000 
Rope1_Seg05 0.000000 0.000000 0.000000 0.000000 0.000000 0.000000 10.000000 
Rope1_Seg06 0.000000 0.000000 0.000000 0.000000 0.000000 0.000000 10.000000 
Rope1_Seg07 0.000000 0.000000 0.000000 0.000000 0.000000 0.000000 10.000000 
Rope1_Seg09 0.000000 0.000000 0.000000 0.000000 0.000000 0.000000 10.000000 
L_mid_hand01 0.000000 0.000000 0.000000 0.000000 0.000000 0.000000 10.000000 
L_mid_hand02 0.000000 0.000000 0.000000 0.000000 0.000000 0.000000 10.000000 
L_mid_hand03 0.000000 0.000000 0.000000 0.000000 0.000000 0.000000 10.000000 
null_rope02_connect 0.000000 0.000000 0.000000 0.000000 0.000000 0.000000 10.000000 
Rope2_Seg01 0.000000 0.000000 0.000000 0.000000 0.000000 0.000000 10.000000 
Rope2_Seg02 0.000000 0.000000 0.000000 0.000000 0.000000 0.000000 10.000000 
Rope2_Seg03 0.000000 0.000000 0.000000 0.000000 0.000000 0.000000 10.000000 
Rope2_Seg04 0.000000 0.000000 0.000000 0.000000 0.000000 0.000000 10.000000 
Rope2_Seg05 0.000000 0.000000 0.000000 0.000000 0.000000 0.000000 10.000000 
Rope2_Seg06 0.000000 0.000000 0.000000 0.000000 0.000000 0.000000 10.000000 
Rope2_Seg07 0.000000 0.000000 0.000000 0.000000 0.000000 0.000000 10.000000 
Rope2_Seg09 0.000000 0.000000 0.000000 0.000000 0.000000 0.000000 10.000000 
R_mid_hand01 0.000000 0.000000 0.000000 0.000000 0.000000 0.000000 10.000000 
R_mid_hand02 0.000000 0.000000 0.000000 0.000000 0.000000 0.000000 10.000000 
R_mid_hand03 0.000000 0.000000 0.000000 0.000000 0.000000 0.000000 10.000000 
spine02 0.000000 0.000000 0.000000 0.000000 0.000000 0.000000 10.000000 
spine03 0.000000 0.000000 0.000000 0.000000 0.000000 0.000000 10.000000 
pelvis 0.000000 0.000000 0.000000 0.000000 0.000000 0.000000 10.000000 
null_rope03_connect 0.000000 0.000000 0.000000 0.000000 0.000000 0.000000 10.000000 
null_rope04_connect 0.000000 0.000000 0.000000 0.000000 0.000000 0.000000 10.000000 
Rope3_Seg01 0.000000 0.000000 0.000000 0.000000 0.000000 0.000000 10.000000 
Rope3_Seg02 0.000000 0.000000 0.000000 0.000000 0.000000 0.000000 10.000000 
Rope3_Seg03 0.000000 0.000000 0.000000 0.000000 0.000000 0.000000 10.000000 
Rope3_Seg04 0.000000 0.000000 0.000000 0.000000 0.000000 0.000000 10.000000 
Rope3_Seg05 0.000000 0.000000 0.000000 0.000000 0.000000 0.000000 10.000000 
Rope3_Seg06 0.000000 0.000000 0.000000 0.000000 0.000000 0.000000 10.000000 
Rope3_Seg07 0.000000 0.000000 0.000000 0.000000 0.000000 0.000000 10.000000 
Rope3_Seg08 0.000000 0.000000 0.000000 0.000000 0.000000 0.000000 10.000000 
Rope3_Seg09 0.000000 0.000000 0.000000 0.000000 0.000000 0.000000 10.000000 
R_rear_hand01 0.000000 0.000000 0.000000 0.000000 0.000000 0.000000 10.000000 
R_rear_hand02 0.000000 0.000000 0.000000 0.000000 0.000000 0.000000 10.000000 
R_rear_hand03 0.000000 0.000000 0.000000 0.000000 0.000000 0.000000 10.000000 
Rope4_Seg01 0.000000 0.000000 0.000000 0.000000 0.000000 0.000000 10.000000 
Rope4_Seg02 0.000000 0.000000 0.000000 0.000000 0.000000 0.000000 10.000000 
Rope4_Seg03 0.000000 0.000000 0.000000 0.000000 0.000000 0.000000 10.000000 
Rope4_Seg04 0.000000 0.000000 0.000000 0.000000 0.000000 0.000000 10.000000 
Rope4_Seg05 0.000000 0.000000 0.000000 0.000000 0.000000 0.000000 10.000000 
Rope4_Seg06 0.000000 0.000000 0.000000 0.000000 0.000000 0.000000 10.000000 
Rope4_Seg07 0.000000 0.000000 0.000000 0.000000 0.000000 0.000000 10.000000 
Rope4_Seg08 0.000000 0.000000 0.000000 0.000000 0.000000 0.000000 10.000000 
Rope4_Seg09 0.000000 0.000000 0.000000 0.000000 0.000000 0.000000 10.000000 
L_rear_hand01 0.000000 0.000000 0.000000 0.000000 0.000000 0.000000 10.000000 
L_rear_hand02 0.000000 0.000000 0.000000 0.000000 0.000000 0.000000 10.000000 
L_rear_hand03 0.000000 0.000000 0.000000 0.000000 0.000000 0.000000 10.000000 
#Beginning of Data. Separated by tabs
#Fr	Tx	Ty	Tz	Rx	Ry	Rz	SF
[MASTER]
36 -1875.735229 10053.750000 1863.683716 0.001660 0.001660 0.001660 10395.652344
37 -2082.431152 10385.530273 1733.867676 0.001660 0.001660 0.001660 10733.221680
[root]
36 221.809021 -241.392242 596.885071 -56.128384 -17.295437 -46.446995 680.985474
37 124.133148 -248.839111 598.074890 -59.739704 -17.458044 -46.260506 659.563110
[chest]
36 -84.512650 -34.090519 0.000000 11.793159 -5.871930 164.965515 91.129311
37 -84.512650 -34.090519 0.000000 11.944105 -6.181515 164.624985 91.129311
[L_mid_tent01]
36 27.298830 22.179258 -249.918701 -18.834249 7.420630 24.112904 252.381668
37 27.298824 22.179258 -249.918701 -18.632826 7.662414 16.341185 252.381668
[R_mid_tent01]
36 23.228794 24.509907 226.238495 153.762924 -5.822709 2.081808 228.744751
37 23.228794 24.509907 226.238495 153.833572 -0.749216 9.345630 228.744751
[spine01]
36 -0.361383 -0.195265 0.000000 0.001687 0.001632 1.925623 0.410763
37 -0.361383 -0.195265 0.000000 0.001687 0.001632 1.890996 0.410763
[Bip01_Neck]
36 165.484543 71.581718 0.000119 176.643677 -1.657967 43.431911 180.302734
37 165.484543 71.581718 0.000119 176.643677 -1.657967 43.431911 180.302734
[L_humerus]
36 -13.983130 -135.272980 -120.471481 172.114929 0.319162 -94.257530 181.680161
37 -13.983130 -135.272980 -120.471481 172.083572 0.708371 -94.955666 181.680161
[R_humerus]
36 -13.983309 -135.273102 125.287651 -177.012817 3.049702 -85.385132 184.909012
37 -13.983309 -135.273102 125.287651 -177.014343 2.678888 -85.399712 184.909012
[weapon_bone]
36 235.964890 -300.705902 0.000000 0.000000 -89.951546 -128.212341 382.234833
37 235.964890 -300.705902 0.000000 0.000000 -89.951546 -128.212341 382.234833
[Bip01_Head]
36 213.390762 185.864655 9.857038 5.279234 3.026849 -45.678501 283.157990
37 213.394577 185.854477 9.988193 4.179881 3.728555 -45.257935 283.158783
[eye_left_bone]
36 -24.626970 125.451866 -64.772606 0.000000 -90.000000 -99.840431 143.318359
37 -24.626970 125.451866 -64.772606 0.000000 -90.000000 -99.840431 143.318359
[eye_right_bone]
36 -24.626970 125.451866 64.327362 0.000000 -89.965736 80.156380 143.117676
37 -24.626970 125.451866 64.327362 0.000000 -89.965736 80.156380 143.117676
[L_forearm]
36 322.776093 0.000000 -0.000119 0.000428 -0.002308 -110.996765 322.776093
37 322.776093 0.000000 -0.000119 0.000427 -0.002308 -110.951744 322.776093
[L_front_hand]
36 241.149185 -0.042021 -3.300071 -178.667953 -1.835447 -27.422350 241.171753
37 241.149185 -0.042021 -3.300071 -178.667953 -1.835447 -27.422350 241.171753
[L_weapon_bone]
36 156.183838 0.000000 0.000000 0.000014 0.000007 0.000001 156.183838
37 156.183838 0.000000 0.000000 0.000014 0.000007 0.000001 156.183838
[L_front_hand01_01]
36 86.095154 20.947098 -0.655860 -0.366594 -0.477154 75.385574 88.609184
37 86.095154 20.947098 -0.655860 -0.366594 -0.477154 75.385574 88.609184
[L_front_hand02_01]
36 86.935165 -11.437475 24.513514 154.399811 -59.883835 -61.369606 91.046425
37 86.935165 -11.437475 24.513514 154.399796 -59.883835 -61.369587 91.046425
[L_front_hand03_01]
36 86.637497 -14.123976 -20.424902 -153.913849 58.118107 -62.702866 90.126129
37 86.637497 -14.123976 -20.424902 -153.913879 58.118130 -62.702892 90.126129
[L_front_hand01_02]
36 71.020905 -0.000179 0.000030 0.000334 -0.002323 -106.374191 71.020905
37 71.020905 -0.000179 0.000030 0.000334 -0.002323 -106.374893 71.020905
[L_front_hand02_02]
36 71.020927 -0.000119 0.000060 0.000334 -0.002323 -106.374191 71.020927
37 71.020927 -0.000119 0.000060 0.000334 -0.002323 -106.374893 71.020927
[L_front_hand03_02]
36 71.020905 -0.000060 0.000060 0.000334 -0.002323 -106.374191 71.020905
37 71.020905 -0.000060 0.000060 0.000334 -0.002323 -106.374893 71.020905
[R_forearm]
36 322.776428 -0.000060 0.000030 0.201178 0.067961 -109.655800 322.776428
37 322.776428 -0.000060 0.000030 0.201206 0.067876 -109.607376 322.776428
[R_front_hand]
36 238.847015 -0.006795 2.210259 -2.635298 -10.645461 -26.312506 238.857239
37 238.847015 -0.006795 2.210259 -2.635298 -10.645461 -26.312506 238.857239
[R_weapon_bone]
36 155.664093 0.002503 -0.000030 0.003487 0.001180 -90.988930 155.664078
37 155.664093 0.002503 -0.000030 0.003487 0.001180 -90.988930 155.664078
[R_front_hand01_01]
36 87.624611 14.231146 22.918642 -154.633484 -59.950607 61.746033 91.683487
37 87.624611 14.231146 22.918642 -154.633499 -59.950619 61.746044 91.683487
[R_front_hand02_01]
36 89.356956 14.367283 -19.491137 154.602661 58.302849 63.744389 92.579636
37 89.356956 14.367283 -19.491137 154.602661 58.302849 63.744389 92.579636
[R_front_hand03_01]
36 87.286232 -22.307278 -0.143439 0.162155 -0.423168 -75.767921 90.091743
37 87.286232 -22.307278 -0.143439 0.162155 -0.423168 -75.767906 90.091743
[R_front_hand01_02]
36 71.020905 0.000060 0.000119 0.002323 -0.000334 106.381714 71.020905
37 71.020905 0.000060 0.000119 0.002323 -0.000334 106.381714 71.020905
[R_front_hand02_02]
36 71.020844 -0.000030 -0.000119 0.002323 -0.000334 106.381714 71.020836
37 71.020844 -0.000030 -0.000119 0.002323 -0.000334 106.381714 71.020836
[R_front_hand03_02]
36 71.020905 0.000000 0.000030 0.002323 -0.000334 106.381714 71.020905
37 71.020905 0.000000 0.000030 0.002323 -0.000334 106.381714 71.020905
[null_rope01_connect]
36 328.732483 0.000000 -0.000238 73.306107 -39.944080 3.782143 328.732483
37 328.732483 0.000000 -0.000238 75.604553 -43.984097 9.608994 328.732483
[Rope1_Seg01]
36 0.000038 -0.000629 0.000000 167.801941 -73.640930 -67.244186 0.000631
37 0.000038 -0.000646 0.000000 -110.680939 -84.345078 -140.117310 0.000647
[Rope1_Seg02]
36 139.999863 -0.000179 0.000000 -1.714847 -4.233712 1.312383 139.999863
37 139.999863 -0.000179 0.000000 -0.176415 -2.487896 2.503858 139.999863
[Rope1_Seg03]
36 139.999924 0.000060 -0.000060 -3.628067 -7.022481 1.964497 139.999924
37 139.999924 0.000060 -0.000060 -0.372428 -3.945179 3.959338 139.999924
[Rope1_Seg04]
36 139.999924 -0.000060 -0.000119 -18.389889 -21.228403 11.977902 139.999924
37 139.999924 -0.000060 -0.000119 0.260726 -8.417257 10.933891 139.999924
[Rope1_Seg05]
36 139.999832 0.000119 -0.000060 -16.987892 -0.689696 -18.848812 139.999832
37 139.999832 0.000119 -0.000060 -4.972377 -17.505474 20.061619 139.999832
[Rope1_Seg06]
36 139.999954 0.000119 -0.000060 0.993726 16.885376 -13.196169 139.999954
37 139.999954 0.000119 -0.000060 -44.163345 -11.083106 -29.552412 139.999954
[Rope1_Seg07]
36 139.999985 0.000060 0.000000 -0.415503 4.369570 -5.604249 139.999985
37 139.999985 0.000060 0.000000 -9.040081 7.200842 -23.507551 139.999985
[Rope1_Seg09]
36 121.602913 0.000119 -0.000089 -89.793175 -1.359789 0.847147 121.602913
37 121.602913 0.000119 -0.000089 -89.793175 -1.359789 0.847147 121.602913
[L_mid_hand01]
36 103.859421 1.038730 8.195221 130.544373 -67.584534 -38.866943 104.187431
37 103.859421 1.038730 8.195221 130.544373 -67.584534 -38.866943 104.187431
[L_mid_hand02]
36 105.572853 -4.139662 -10.864139 -168.923172 43.409309 -73.498886 106.211075
37 105.572853 -4.139662 -10.864139 -168.923172 43.409309 -73.498886 106.211075
[L_mid_hand03]
36 104.641464 17.579376 -3.913581 -6.012627 17.808174 74.893669 106.179977
37 104.641464 17.579376 -3.913581 -6.012627 17.808174 74.893669 106.179977
[null_rope02_connect]
36 328.732849 0.000179 -0.000119 -96.964417 38.046509 -23.113411 328.732849
37 328.732849 0.000179 -0.000119 -93.722519 40.298264 -12.118925 328.732849
[Rope2_Seg01]
36 0.000076 -0.000553 0.000000 58.422394 13.430560 -20.743919 0.000558
37 0.000076 -0.000572 0.000000 69.954056 29.382320 -0.057393 0.000577
[Rope2_Seg02]
36 139.999741 -0.000060 -0.000119 -33.980804 -23.141483 -10.046882 139.999756
37 139.999741 -0.000060 -0.000119 -14.949658 -27.720245 -11.358185 139.999756
[Rope2_Seg03]
36 140.000107 0.000030 0.000000 -27.145346 -7.358644 -13.229088 140.000107
37 140.000107 0.000030 0.000000 -22.512396 -18.109596 -13.686600 140.000107
[Rope2_Seg04]
36 139.999802 0.000000 -0.000060 -13.485437 -0.999588 -9.083710 139.999802
37 139.999802 0.000000 -0.000060 -15.354407 -5.531428 -11.571304 139.999802
[Rope2_Seg05]
36 139.999985 -0.000060 0.000119 -10.050416 -0.150323 -8.054596 139.999985
37 139.999985 -0.000060 0.000119 -13.411590 -0.293594 -14.388424 139.999985
[Rope2_Seg06]
36 139.999893 -0.000030 -0.000119 -6.397617 1.013793 -6.294683 139.999893
37 139.999893 -0.000030 -0.000119 -8.675364 3.078653 -13.369434 139.999893
[Rope2_Seg07]
36 139.999893 0.000060 -0.000060 -3.560334 1.302937 -4.171654 139.999893
37 139.999893 0.000060 -0.000060 -3.799424 2.819112 -7.923769 139.999893
[Rope2_Seg09]
36 121.338966 0.000089 -0.000060 33.793236 -1.359788 -0.847141 121.338966
37 121.338966 0.000089 -0.000060 33.793236 -1.359788 -0.847141 121.338966
[R_mid_hand01]
36 104.680779 11.144459 -10.335981 -16.212063 45.237247 70.462852 105.778534
37 104.680779 11.144459 -10.335981 -16.212063 45.237247 70.462852 105.778534
[R_mid_hand02]
36 104.070427 2.443552 8.231699 49.067368 -67.749771 39.286453 104.424065
37 104.070427 2.443552 8.231699 49.067371 -67.749794 39.286461 104.424065
[R_mid_hand03]
36 106.028137 -11.221827 -5.996406 -177.101105 15.551026 -76.585571 106.788818
37 106.028137 -11.221827 -5.996406 -177.101105 15.551026 -76.585571 106.788818
[spine02]
36 129.756927 0.001550 0.000119 0.516897 -4.026667 -15.205477 129.756927
37 129.756927 0.001550 0.000119 0.512289 -4.027266 -15.144156 129.756927
[spine03]
36 78.613678 0.081711 -4.898994 1.988521 3.783798 17.893360 78.766212
37 78.613670 0.081713 -4.898994 1.985749 3.785534 17.854889 78.766212
[pelvis]
36 169.435242 0.051022 0.000000 1.314779 -0.194918 -10.103534 169.435257
37 169.435242 0.051022 0.000000 0.019498 -0.190233 -10.721437 169.435257
[null_rope03_connect]
36 -1.257226 -2.466202 137.391083 50.608452 -27.167320 47.461491 137.418976
37 -1.257226 -2.466202 137.391083 54.856911 -30.271441 46.055286 137.418976
[null_rope04_connect]
36 -1.259640 -2.480268 -137.844437 50.608452 -27.167320 47.461491 137.872513
37 -1.259640 -2.480268 -137.844437 54.856911 -30.271441 46.055286 137.872513
[Rope3_Seg01]
36 0.000000 0.000000 0.000000 14.253164 0.347433 -44.446781 0.000000
37 0.000000 0.000000 0.000000 12.997379 2.369667 -32.889435 0.000000
[Rope3_Seg02]
36 139.999924 -0.000119 0.000060 -3.012569 -3.593763 3.135737 139.999924
37 139.999924 -0.000119 0.000060 0.385080 0.677796 0.434213 139.999924
[Rope3_Seg03]
36 139.999924 -0.000119 0.000119 -3.796306 -3.988443 4.239475 139.999924
37 139.999924 -0.000119 0.000119 -1.584192 -0.381362 2.351573 139.999924
[Rope3_Seg04]
36 139.999924 0.000119 0.000000 -3.254593 -3.369201 3.325109 139.999924
37 139.999924 0.000119 0.000000 -1.167347 -0.108650 1.793250 139.999924
[Rope3_Seg05]
36 139.999924 -0.000238 0.000060 3.359964 1.995255 -6.946577 139.999924
37 139.999924 -0.000238 0.000060 12.656181 34.662144 -57.342247 139.999924
[Rope3_Seg06]
36 139.999893 -0.000119 -0.000060 5.933006 7.946069 -28.433983 139.999893
37 139.999893 -0.000119 -0.000060 -15.152889 6.480944 -60.458450 139.999893
[Rope3_Seg07]
36 139.999771 0.000060 -0.000119 -2.795756 4.090621 -35.415569 139.999771
37 139.999771 0.000060 -0.000119 -2.485751 1.556709 -4.540285 139.999771
[Rope3_Seg08]
36 139.999985 -0.000060 0.000000 -2.278754 1.437976 -9.630474 139.999985
37 139.999985 -0.000060 0.000000 0.535791 0.001654 0.001659 139.999985
[Rope3_Seg09]
36 90.185997 -0.000179 -0.000060 89.793228 -1.359877 -0.847183 90.185997
37 90.185997 -0.000179 -0.000060 89.793228 -1.359877 -0.847183 90.185997
[R_rear_hand01]
36 103.366196 -6.073594 -10.757982 -177.714203 24.565960 -73.910950 104.101845
37 103.366196 -6.073594 -10.757982 -177.714203 24.565960 -73.910950 104.101845
[R_rear_hand02]
36 100.509819 12.039542 -7.992327 -12.874829 36.868488 72.167213 101.543350
37 100.509819 12.039542 -7.992327 -12.874829 36.868488 72.167213 101.543350
[R_rear_hand03]
36 101.539970 5.215704 5.435467 71.484581 -71.816628 21.513813 101.819031
37 101.539970 5.215704 5.435467 71.484581 -71.816628 21.513813 101.819031
[Rope4_Seg01]
36 -0.000000 -0.000629 -0.000153 -115.733009 -16.353449 -18.057453 0.000648
37 -0.000000 -0.000646 -0.000153 177.307083 -25.405140 -16.149975 0.000664
[Rope4_Seg02]
36 139.999985 0.000060 0.000119 -22.327393 14.701030 -1.502242 139.999985
37 139.999985 0.000060 0.000119 20.315561 7.162614 11.918466 139.999985
[Rope4_Seg03]
36 139.999924 0.000000 -0.000238 -4.238476 23.917242 6.301832 139.999924
37 139.999924 0.000000 -0.000238 7.553866 21.853256 15.615998 139.999924
[Rope4_Seg04]
36 139.999985 0.000000 0.000119 1.319371 17.731028 8.368881 139.999985
37 139.999985 0.000000 0.000119 6.150387 22.960472 17.671740 139.999985
[Rope4_Seg05]
36 139.999802 -0.000060 -0.000119 2.445324 -4.357890 3.186265 139.999802
37 139.999802 -0.000060 -0.000119 2.456614 -0.071028 17.030430 139.999802
[Rope4_Seg06]
36 139.999924 0.000000 0.000060 1.220725 -0.426021 2.069640 139.999924
37 139.999924 0.000000 0.000060 0.573064 1.775010 9.627645 139.999924
[Rope4_Seg07]
36 139.999802 0.000000 0.000000 0.800322 0.184428 1.452127 139.999802
37 139.999802 0.000000 0.000000 0.020351 1.724031 5.846023 139.999802
[Rope4_Seg08]
36 139.999924 0.000000 0.000119 -1.065725 0.123476 0.866059 139.999924
37 139.999924 0.000000 0.000119 -1.645060 0.833928 2.829174 139.999924
[Rope4_Seg09]
36 90.185791 0.000060 0.000060 -135.617828 2.228885 0.850567 90.185791
37 90.185791 0.000060 0.000060 -135.617828 2.228885 0.850567 90.185791
[L_rear_hand01]
36 101.696655 -8.392275 -7.654577 -12.874829 -36.868488 107.832764 102.329041
37 101.696655 -8.392275 -7.654577 -12.874829 -36.868488 107.832764 102.329041
[L_rear_hand02]
36 102.726799 -1.568258 5.773216 71.484581 71.816628 158.486160 102.900848
37 102.726799 -1.568258 5.773216 71.484581 71.816628 158.486160 102.900848
[L_rear_hand03]
36 104.552910 9.721220 -10.420293 -177.714203 -24.565960 -106.089035 105.519653
37 104.552910 9.721220 -10.420293 -177.714203 -24.565960 -106.089035 105.519653
